<mxfile host="app.diagrams.net" modified="2022-08-11T03:33:52.146Z" agent="5.0 (Windows NT 10.0; Win64; x64) AppleWebKit/537.36 (KHTML, like Gecko) Chrome/103.0.5060.134 Safari/537.36 Edg/103.0.1264.77" etag="PB6i4lDmjRscH6NClMGv" version="20.2.3" type="github">
  <diagram id="k7IKuylsqYM5WvO5UO-t" name="PÃ¡gina-1">
    <mxGraphModel dx="1384" dy="772" grid="1" gridSize="10" guides="1" tooltips="1" connect="1" arrows="1" fold="1" page="1" pageScale="1" pageWidth="827" pageHeight="1169" math="0" shadow="0">
      <root>
        <mxCell id="0" />
        <mxCell id="1" parent="0" />
        <mxCell id="qScfWYPSDUv3m5VvyCQx-13" style="edgeStyle=orthogonalEdgeStyle;rounded=0;orthogonalLoop=1;jettySize=auto;html=1;" edge="1" parent="1" source="qScfWYPSDUv3m5VvyCQx-3" target="qScfWYPSDUv3m5VvyCQx-12">
          <mxGeometry relative="1" as="geometry" />
        </mxCell>
        <mxCell id="qScfWYPSDUv3m5VvyCQx-3" value="BANK" style="rounded=1;whiteSpace=wrap;html=1;fillColor=none;" vertex="1" parent="1">
          <mxGeometry x="323" y="60" width="120" height="60" as="geometry" />
        </mxCell>
        <mxCell id="qScfWYPSDUv3m5VvyCQx-16" style="edgeStyle=orthogonalEdgeStyle;rounded=0;orthogonalLoop=1;jettySize=auto;html=1;" edge="1" parent="1" source="qScfWYPSDUv3m5VvyCQx-4" target="qScfWYPSDUv3m5VvyCQx-15">
          <mxGeometry relative="1" as="geometry" />
        </mxCell>
        <mxCell id="qScfWYPSDUv3m5VvyCQx-4" value="BANKCREDIT" style="rounded=1;whiteSpace=wrap;html=1;fillColor=none;" vertex="1" parent="1">
          <mxGeometry x="323" y="160" width="120" height="60" as="geometry" />
        </mxCell>
        <mxCell id="qScfWYPSDUv3m5VvyCQx-19" style="edgeStyle=orthogonalEdgeStyle;rounded=0;orthogonalLoop=1;jettySize=auto;html=1;" edge="1" parent="1" source="qScfWYPSDUv3m5VvyCQx-6" target="qScfWYPSDUv3m5VvyCQx-18">
          <mxGeometry relative="1" as="geometry" />
        </mxCell>
        <mxCell id="qScfWYPSDUv3m5VvyCQx-6" value="BANKCREDIT TRANSACTION" style="rounded=1;whiteSpace=wrap;html=1;fillColor=none;" vertex="1" parent="1">
          <mxGeometry x="323" y="260" width="120" height="60" as="geometry" />
        </mxCell>
        <mxCell id="qScfWYPSDUv3m5VvyCQx-26" style="edgeStyle=orthogonalEdgeStyle;rounded=0;orthogonalLoop=1;jettySize=auto;html=1;" edge="1" parent="1" source="qScfWYPSDUv3m5VvyCQx-7" target="qScfWYPSDUv3m5VvyCQx-21">
          <mxGeometry relative="1" as="geometry" />
        </mxCell>
        <mxCell id="qScfWYPSDUv3m5VvyCQx-7" value="PASSIVE" style="rounded=1;whiteSpace=wrap;html=1;fillColor=none;" vertex="1" parent="1">
          <mxGeometry x="323" y="360" width="120" height="60" as="geometry" />
        </mxCell>
        <mxCell id="qScfWYPSDUv3m5VvyCQx-8" value="PASSIVE TRANSACTION" style="rounded=1;whiteSpace=wrap;html=1;fillColor=none;" vertex="1" parent="1">
          <mxGeometry x="323" y="448" width="120" height="60" as="geometry" />
        </mxCell>
        <mxCell id="qScfWYPSDUv3m5VvyCQx-28" style="edgeStyle=orthogonalEdgeStyle;rounded=0;orthogonalLoop=1;jettySize=auto;html=1;" edge="1" parent="1" source="qScfWYPSDUv3m5VvyCQx-9" target="qScfWYPSDUv3m5VvyCQx-23">
          <mxGeometry relative="1" as="geometry" />
        </mxCell>
        <mxCell id="qScfWYPSDUv3m5VvyCQx-9" value="PRODUCT" style="rounded=1;whiteSpace=wrap;html=1;fillColor=none;" vertex="1" parent="1">
          <mxGeometry x="323" y="539" width="120" height="60" as="geometry" />
        </mxCell>
        <mxCell id="qScfWYPSDUv3m5VvyCQx-12" value="CLIENTS" style="shape=cylinder3;whiteSpace=wrap;html=1;boundedLbl=1;backgroundOutline=1;size=15;fillColor=none;" vertex="1" parent="1">
          <mxGeometry x="650" y="50" width="60" height="80" as="geometry" />
        </mxCell>
        <mxCell id="qScfWYPSDUv3m5VvyCQx-15" value="CREDITS" style="shape=cylinder3;whiteSpace=wrap;html=1;boundedLbl=1;backgroundOutline=1;size=15;fillColor=none;" vertex="1" parent="1">
          <mxGeometry x="650" y="150" width="60" height="80" as="geometry" />
        </mxCell>
        <mxCell id="qScfWYPSDUv3m5VvyCQx-18" value="CREDIT TRANSACTIONS" style="shape=cylinder3;whiteSpace=wrap;html=1;boundedLbl=1;backgroundOutline=1;size=15;fillColor=none;" vertex="1" parent="1">
          <mxGeometry x="650" y="250" width="60" height="80" as="geometry" />
        </mxCell>
        <mxCell id="qScfWYPSDUv3m5VvyCQx-21" value="CREDIT TRANSACTIONS" style="shape=cylinder3;whiteSpace=wrap;html=1;boundedLbl=1;backgroundOutline=1;size=15;fillColor=none;" vertex="1" parent="1">
          <mxGeometry x="650" y="350" width="60" height="80" as="geometry" />
        </mxCell>
        <mxCell id="qScfWYPSDUv3m5VvyCQx-22" value="CREDIT TRANSACTIONS" style="shape=cylinder3;whiteSpace=wrap;html=1;boundedLbl=1;backgroundOutline=1;size=15;fillColor=none;" vertex="1" parent="1">
          <mxGeometry x="650" y="438" width="60" height="80" as="geometry" />
        </mxCell>
        <mxCell id="qScfWYPSDUv3m5VvyCQx-23" value="CREDIT TRANSACTIONS" style="shape=cylinder3;whiteSpace=wrap;html=1;boundedLbl=1;backgroundOutline=1;size=15;fillColor=none;" vertex="1" parent="1">
          <mxGeometry x="650" y="529" width="60" height="80" as="geometry" />
        </mxCell>
        <mxCell id="qScfWYPSDUv3m5VvyCQx-27" style="edgeStyle=orthogonalEdgeStyle;rounded=0;orthogonalLoop=1;jettySize=auto;html=1;" edge="1" parent="1" source="qScfWYPSDUv3m5VvyCQx-25" target="qScfWYPSDUv3m5VvyCQx-22">
          <mxGeometry relative="1" as="geometry" />
        </mxCell>
        <mxCell id="qScfWYPSDUv3m5VvyCQx-25" value="PASSIVE TRANSACTION" style="rounded=1;whiteSpace=wrap;html=1;fillColor=none;" vertex="1" parent="1">
          <mxGeometry x="323" y="448" width="120" height="60" as="geometry" />
        </mxCell>
        <mxCell id="qScfWYPSDUv3m5VvyCQx-34" style="edgeStyle=orthogonalEdgeStyle;rounded=0;orthogonalLoop=1;jettySize=auto;html=1;entryX=0;entryY=0.5;entryDx=0;entryDy=0;" edge="1" parent="1" source="qScfWYPSDUv3m5VvyCQx-29" target="qScfWYPSDUv3m5VvyCQx-3">
          <mxGeometry relative="1" as="geometry" />
        </mxCell>
        <mxCell id="qScfWYPSDUv3m5VvyCQx-38" style="edgeStyle=orthogonalEdgeStyle;rounded=0;orthogonalLoop=1;jettySize=auto;html=1;" edge="1" parent="1" source="qScfWYPSDUv3m5VvyCQx-29" target="qScfWYPSDUv3m5VvyCQx-4">
          <mxGeometry relative="1" as="geometry" />
        </mxCell>
        <mxCell id="qScfWYPSDUv3m5VvyCQx-39" style="edgeStyle=orthogonalEdgeStyle;rounded=0;orthogonalLoop=1;jettySize=auto;html=1;entryX=0;entryY=0.5;entryDx=0;entryDy=0;" edge="1" parent="1" source="qScfWYPSDUv3m5VvyCQx-29" target="qScfWYPSDUv3m5VvyCQx-6">
          <mxGeometry relative="1" as="geometry" />
        </mxCell>
        <mxCell id="qScfWYPSDUv3m5VvyCQx-40" style="edgeStyle=orthogonalEdgeStyle;rounded=0;orthogonalLoop=1;jettySize=auto;html=1;entryX=0;entryY=0.5;entryDx=0;entryDy=0;" edge="1" parent="1" source="qScfWYPSDUv3m5VvyCQx-29" target="qScfWYPSDUv3m5VvyCQx-7">
          <mxGeometry relative="1" as="geometry" />
        </mxCell>
        <mxCell id="qScfWYPSDUv3m5VvyCQx-41" style="edgeStyle=orthogonalEdgeStyle;rounded=0;orthogonalLoop=1;jettySize=auto;html=1;entryX=0;entryY=0.5;entryDx=0;entryDy=0;" edge="1" parent="1" source="qScfWYPSDUv3m5VvyCQx-29" target="qScfWYPSDUv3m5VvyCQx-25">
          <mxGeometry relative="1" as="geometry" />
        </mxCell>
        <mxCell id="qScfWYPSDUv3m5VvyCQx-42" style="edgeStyle=orthogonalEdgeStyle;rounded=0;orthogonalLoop=1;jettySize=auto;html=1;entryX=0;entryY=0.5;entryDx=0;entryDy=0;" edge="1" parent="1" source="qScfWYPSDUv3m5VvyCQx-29" target="qScfWYPSDUv3m5VvyCQx-9">
          <mxGeometry relative="1" as="geometry" />
        </mxCell>
        <mxCell id="qScfWYPSDUv3m5VvyCQx-29" value="POSTMAN" style="ellipse;whiteSpace=wrap;html=1;aspect=fixed;fillColor=none;" vertex="1" parent="1">
          <mxGeometry x="60" y="180" width="80" height="80" as="geometry" />
        </mxCell>
        <mxCell id="qScfWYPSDUv3m5VvyCQx-30" value="CONFIG FILES&lt;br&gt;GITLAB" style="rounded=1;whiteSpace=wrap;html=1;fillColor=none;" vertex="1" parent="1">
          <mxGeometry x="470" y="710" width="120" height="60" as="geometry" />
        </mxCell>
        <mxCell id="qScfWYPSDUv3m5VvyCQx-35" style="edgeStyle=orthogonalEdgeStyle;rounded=0;orthogonalLoop=1;jettySize=auto;html=1;" edge="1" parent="1" source="qScfWYPSDUv3m5VvyCQx-31" target="qScfWYPSDUv3m5VvyCQx-30">
          <mxGeometry relative="1" as="geometry" />
        </mxCell>
        <mxCell id="qScfWYPSDUv3m5VvyCQx-43" style="edgeStyle=orthogonalEdgeStyle;rounded=0;orthogonalLoop=1;jettySize=auto;html=1;entryX=1;entryY=0.75;entryDx=0;entryDy=0;dashed=1;" edge="1" parent="1" source="qScfWYPSDUv3m5VvyCQx-31" target="qScfWYPSDUv3m5VvyCQx-3">
          <mxGeometry relative="1" as="geometry">
            <Array as="points">
              <mxPoint x="530" y="105" />
            </Array>
          </mxGeometry>
        </mxCell>
        <mxCell id="qScfWYPSDUv3m5VvyCQx-44" style="edgeStyle=orthogonalEdgeStyle;rounded=0;orthogonalLoop=1;jettySize=auto;html=1;entryX=1;entryY=0.75;entryDx=0;entryDy=0;dashed=1;" edge="1" parent="1" source="qScfWYPSDUv3m5VvyCQx-31" target="qScfWYPSDUv3m5VvyCQx-4">
          <mxGeometry relative="1" as="geometry">
            <Array as="points">
              <mxPoint x="530" y="205" />
            </Array>
          </mxGeometry>
        </mxCell>
        <mxCell id="qScfWYPSDUv3m5VvyCQx-45" style="edgeStyle=orthogonalEdgeStyle;rounded=0;orthogonalLoop=1;jettySize=auto;html=1;entryX=1;entryY=0.75;entryDx=0;entryDy=0;dashed=1;" edge="1" parent="1" source="qScfWYPSDUv3m5VvyCQx-31" target="qScfWYPSDUv3m5VvyCQx-6">
          <mxGeometry relative="1" as="geometry">
            <Array as="points">
              <mxPoint x="530" y="305" />
            </Array>
          </mxGeometry>
        </mxCell>
        <mxCell id="qScfWYPSDUv3m5VvyCQx-46" style="edgeStyle=orthogonalEdgeStyle;rounded=0;orthogonalLoop=1;jettySize=auto;html=1;entryX=1;entryY=0.75;entryDx=0;entryDy=0;dashed=1;" edge="1" parent="1" source="qScfWYPSDUv3m5VvyCQx-31" target="qScfWYPSDUv3m5VvyCQx-7">
          <mxGeometry relative="1" as="geometry">
            <Array as="points">
              <mxPoint x="530" y="405" />
            </Array>
          </mxGeometry>
        </mxCell>
        <mxCell id="qScfWYPSDUv3m5VvyCQx-47" style="edgeStyle=orthogonalEdgeStyle;rounded=0;orthogonalLoop=1;jettySize=auto;html=1;entryX=1;entryY=0.75;entryDx=0;entryDy=0;dashed=1;" edge="1" parent="1" source="qScfWYPSDUv3m5VvyCQx-31" target="qScfWYPSDUv3m5VvyCQx-25">
          <mxGeometry relative="1" as="geometry">
            <Array as="points">
              <mxPoint x="530" y="493" />
            </Array>
          </mxGeometry>
        </mxCell>
        <mxCell id="qScfWYPSDUv3m5VvyCQx-48" style="edgeStyle=orthogonalEdgeStyle;rounded=0;orthogonalLoop=1;jettySize=auto;html=1;entryX=1;entryY=0.75;entryDx=0;entryDy=0;dashed=1;" edge="1" parent="1" source="qScfWYPSDUv3m5VvyCQx-31" target="qScfWYPSDUv3m5VvyCQx-9">
          <mxGeometry relative="1" as="geometry">
            <Array as="points">
              <mxPoint x="530" y="584" />
            </Array>
          </mxGeometry>
        </mxCell>
        <mxCell id="qScfWYPSDUv3m5VvyCQx-31" value="CONFIG SERVER" style="rounded=1;whiteSpace=wrap;html=1;fillColor=none;" vertex="1" parent="1">
          <mxGeometry x="470" y="609" width="120" height="60" as="geometry" />
        </mxCell>
      </root>
    </mxGraphModel>
  </diagram>
</mxfile>
